<mxfile host="app.diagrams.net" modified="2021-06-06T03:22:52.615Z" agent="5.0 (Windows NT 10.0; Win64; x64) AppleWebKit/537.36 (KHTML, like Gecko) Chrome/91.0.4472.77 Safari/537.36" etag="7IX7WsbNYoMxhN0WVB2x" version="14.7.6" type="github">
  <diagram id="qNtHvHr-Q_ltwnV1EGBj" name="Page-1">
    <mxGraphModel dx="1000" dy="625" grid="1" gridSize="10" guides="1" tooltips="1" connect="1" arrows="1" fold="1" page="1" pageScale="1" pageWidth="827" pageHeight="1169" math="0" shadow="0">
      <root>
        <mxCell id="0" />
        <mxCell id="1" parent="0" />
        <mxCell id="O2qR3MdietZGcdY_5S_x-27" style="edgeStyle=orthogonalEdgeStyle;rounded=0;orthogonalLoop=1;jettySize=auto;html=1;dashed=1;endArrow=open;endFill=0;" parent="1" source="Hz_aNHwt8BgAc0QITuWz-24" target="Hz_aNHwt8BgAc0QITuWz-40" edge="1">
          <mxGeometry relative="1" as="geometry">
            <Array as="points">
              <mxPoint x="380" y="410" />
              <mxPoint x="380" y="410" />
            </Array>
            <mxPoint x="290" y="400" as="targetPoint" />
          </mxGeometry>
        </mxCell>
        <mxCell id="Hz_aNHwt8BgAc0QITuWz-24" value="Team Meeting Room Controller" style="swimlane;fontStyle=1;align=center;verticalAlign=top;childLayout=stackLayout;horizontal=1;startSize=26;horizontalStack=0;resizeParent=1;resizeParentMax=0;resizeLast=0;collapsible=1;marginBottom=0;" parent="1" vertex="1">
          <mxGeometry x="279" y="199" width="270" height="142" as="geometry" />
        </mxCell>
        <mxCell id="Hz_aNHwt8BgAc0QITuWz-25" value="- meetingRoomView : Meeting Room View" style="text;strokeColor=none;fillColor=none;align=left;verticalAlign=top;spacingLeft=4;spacingRight=4;overflow=hidden;rotatable=0;points=[[0,0.5],[1,0.5]];portConstraint=eastwest;" parent="Hz_aNHwt8BgAc0QITuWz-24" vertex="1">
          <mxGeometry y="26" width="270" height="26" as="geometry" />
        </mxCell>
        <mxCell id="Hz_aNHwt8BgAc0QITuWz-28" value="- meetingRoomData : Meeting Room Model" style="text;strokeColor=none;fillColor=none;align=left;verticalAlign=top;spacingLeft=4;spacingRight=4;overflow=hidden;rotatable=0;points=[[0,0.5],[1,0.5]];portConstraint=eastwest;" parent="Hz_aNHwt8BgAc0QITuWz-24" vertex="1">
          <mxGeometry y="52" width="270" height="26" as="geometry" />
        </mxCell>
        <mxCell id="Hz_aNHwt8BgAc0QITuWz-26" value="" style="line;strokeWidth=1;fillColor=none;align=left;verticalAlign=middle;spacingTop=-1;spacingLeft=3;spacingRight=3;rotatable=0;labelPosition=right;points=[];portConstraint=eastwest;" parent="Hz_aNHwt8BgAc0QITuWz-24" vertex="1">
          <mxGeometry y="78" width="270" height="8" as="geometry" />
        </mxCell>
        <mxCell id="Hz_aNHwt8BgAc0QITuWz-54" value="+ leave()" style="text;strokeColor=none;fillColor=none;align=left;verticalAlign=top;spacingLeft=4;spacingRight=4;overflow=hidden;rotatable=0;points=[[0,0.5],[1,0.5]];portConstraint=eastwest;" parent="Hz_aNHwt8BgAc0QITuWz-24" vertex="1">
          <mxGeometry y="86" width="270" height="28" as="geometry" />
        </mxCell>
        <mxCell id="O2qR3MdietZGcdY_5S_x-10" value="+ changeView()" style="text;strokeColor=none;fillColor=none;align=left;verticalAlign=top;spacingLeft=4;spacingRight=4;overflow=hidden;rotatable=0;points=[[0,0.5],[1,0.5]];portConstraint=eastwest;" parent="Hz_aNHwt8BgAc0QITuWz-24" vertex="1">
          <mxGeometry y="114" width="270" height="28" as="geometry" />
        </mxCell>
        <mxCell id="Hz_aNHwt8BgAc0QITuWz-40" value="Meeting Room View" style="swimlane;fontStyle=1;align=center;verticalAlign=top;childLayout=stackLayout;horizontal=1;startSize=26;horizontalStack=0;resizeParent=1;resizeParentMax=0;resizeLast=0;collapsible=1;marginBottom=0;" parent="1" vertex="1">
          <mxGeometry x="250" y="540" width="260" height="216" as="geometry" />
        </mxCell>
        <mxCell id="Hz_aNHwt8BgAc0QITuWz-41" value="- chatPanel : Chatting Panel" style="text;strokeColor=none;fillColor=none;align=left;verticalAlign=top;spacingLeft=4;spacingRight=4;overflow=hidden;rotatable=0;points=[[0,0.5],[1,0.5]];portConstraint=eastwest;" parent="Hz_aNHwt8BgAc0QITuWz-40" vertex="1">
          <mxGeometry y="26" width="260" height="26" as="geometry" />
        </mxCell>
        <mxCell id="Hz_aNHwt8BgAc0QITuWz-42" value="- sharedScreenPanel : SharedScreenPanel" style="text;strokeColor=none;fillColor=none;align=left;verticalAlign=top;spacingLeft=4;spacingRight=4;overflow=hidden;rotatable=0;points=[[0,0.5],[1,0.5]];portConstraint=eastwest;" parent="Hz_aNHwt8BgAc0QITuWz-40" vertex="1">
          <mxGeometry y="52" width="260" height="26" as="geometry" />
        </mxCell>
        <mxCell id="4UmKPEfYZLAE1zrM95qP-1" value="- sharingBtn : Button" style="text;strokeColor=none;fillColor=none;align=left;verticalAlign=top;spacingLeft=4;spacingRight=4;overflow=hidden;rotatable=0;points=[[0,0.5],[1,0.5]];portConstraint=eastwest;" vertex="1" parent="Hz_aNHwt8BgAc0QITuWz-40">
          <mxGeometry y="78" width="260" height="26" as="geometry" />
        </mxCell>
        <mxCell id="O2qR3MdietZGcdY_5S_x-26" value="- characterPanel : CharacterPanel" style="text;strokeColor=none;fillColor=none;align=left;verticalAlign=top;spacingLeft=4;spacingRight=4;overflow=hidden;rotatable=0;points=[[0,0.5],[1,0.5]];portConstraint=eastwest;" parent="Hz_aNHwt8BgAc0QITuWz-40" vertex="1">
          <mxGeometry y="104" width="260" height="26" as="geometry" />
        </mxCell>
        <mxCell id="Hz_aNHwt8BgAc0QITuWz-46" value="- gestureUI : Button" style="text;strokeColor=none;fillColor=none;align=left;verticalAlign=top;spacingLeft=4;spacingRight=4;overflow=hidden;rotatable=0;points=[[0,0.5],[1,0.5]];portConstraint=eastwest;" parent="Hz_aNHwt8BgAc0QITuWz-40" vertex="1">
          <mxGeometry y="130" width="260" height="26" as="geometry" />
        </mxCell>
        <mxCell id="Hz_aNHwt8BgAc0QITuWz-47" value="- optionPanel : Option Panel" style="text;strokeColor=none;fillColor=none;align=left;verticalAlign=top;spacingLeft=4;spacingRight=4;overflow=hidden;rotatable=0;points=[[0,0.5],[1,0.5]];portConstraint=eastwest;" parent="Hz_aNHwt8BgAc0QITuWz-40" vertex="1">
          <mxGeometry y="156" width="260" height="26" as="geometry" />
        </mxCell>
        <mxCell id="4UmKPEfYZLAE1zrM95qP-2" value="-leaveMeetingRoomBtn : Button" style="text;strokeColor=none;fillColor=none;align=left;verticalAlign=top;spacingLeft=4;spacingRight=4;overflow=hidden;rotatable=0;points=[[0,0.5],[1,0.5]];portConstraint=eastwest;" vertex="1" parent="Hz_aNHwt8BgAc0QITuWz-40">
          <mxGeometry y="182" width="260" height="26" as="geometry" />
        </mxCell>
        <mxCell id="Hz_aNHwt8BgAc0QITuWz-43" value="" style="line;strokeWidth=1;fillColor=none;align=left;verticalAlign=middle;spacingTop=-1;spacingLeft=3;spacingRight=3;rotatable=0;labelPosition=right;points=[];portConstraint=eastwest;" parent="Hz_aNHwt8BgAc0QITuWz-40" vertex="1">
          <mxGeometry y="208" width="260" height="8" as="geometry" />
        </mxCell>
        <mxCell id="3FCXXXmUhi3AQjOjjsUY-24" style="edgeStyle=orthogonalEdgeStyle;rounded=0;orthogonalLoop=1;jettySize=auto;html=1;dashed=1;endArrow=open;endFill=0;" parent="1" source="Hz_aNHwt8BgAc0QITuWz-55" target="3FCXXXmUhi3AQjOjjsUY-4" edge="1">
          <mxGeometry relative="1" as="geometry">
            <Array as="points">
              <mxPoint x="890" y="400" />
              <mxPoint x="890" y="400" />
            </Array>
          </mxGeometry>
        </mxCell>
        <mxCell id="Hz_aNHwt8BgAc0QITuWz-55" value="DB Handler" style="swimlane;fontStyle=1;align=center;verticalAlign=top;childLayout=stackLayout;horizontal=1;startSize=26;horizontalStack=0;resizeParent=1;resizeParentMax=0;resizeLast=0;collapsible=1;marginBottom=0;" parent="1" vertex="1">
          <mxGeometry x="789" y="290" width="250" height="60" as="geometry" />
        </mxCell>
        <mxCell id="Hz_aNHwt8BgAc0QITuWz-57" value="" style="line;strokeWidth=1;fillColor=none;align=left;verticalAlign=middle;spacingTop=-1;spacingLeft=3;spacingRight=3;rotatable=0;labelPosition=right;points=[];portConstraint=eastwest;" parent="Hz_aNHwt8BgAc0QITuWz-55" vertex="1">
          <mxGeometry y="26" width="250" height="8" as="geometry" />
        </mxCell>
        <mxCell id="Hz_aNHwt8BgAc0QITuWz-58" value="+ accessTeamData(teamID, userID)" style="text;strokeColor=none;fillColor=none;align=left;verticalAlign=top;spacingLeft=4;spacingRight=4;overflow=hidden;rotatable=0;points=[[0,0.5],[1,0.5]];portConstraint=eastwest;" parent="Hz_aNHwt8BgAc0QITuWz-55" vertex="1">
          <mxGeometry y="34" width="250" height="26" as="geometry" />
        </mxCell>
        <mxCell id="5bsr-KJX9lXTCWiHj4wk-24" style="edgeStyle=orthogonalEdgeStyle;rounded=0;orthogonalLoop=1;jettySize=auto;html=1;dashed=1;endArrow=open;endFill=0;" parent="1" source="3FCXXXmUhi3AQjOjjsUY-25" target="Hz_aNHwt8BgAc0QITuWz-24" edge="1">
          <mxGeometry relative="1" as="geometry">
            <Array as="points">
              <mxPoint x="450" y="443" />
            </Array>
            <mxPoint x="580" y="443.0000000000002" as="sourcePoint" />
          </mxGeometry>
        </mxCell>
        <mxCell id="3FCXXXmUhi3AQjOjjsUY-4" value="Meeting Room Model" style="swimlane;fontStyle=1;align=center;verticalAlign=top;childLayout=stackLayout;horizontal=1;startSize=26;horizontalStack=0;resizeParent=1;resizeParentMax=0;resizeLast=0;collapsible=1;marginBottom=0;" parent="1" vertex="1">
          <mxGeometry x="790" y="415" width="160" height="52" as="geometry" />
        </mxCell>
        <mxCell id="3FCXXXmUhi3AQjOjjsUY-5" value="- r_id : int" style="text;strokeColor=none;fillColor=none;align=left;verticalAlign=top;spacingLeft=4;spacingRight=4;overflow=hidden;rotatable=0;points=[[0,0.5],[1,0.5]];portConstraint=eastwest;" parent="3FCXXXmUhi3AQjOjjsUY-4" vertex="1">
          <mxGeometry y="26" width="160" height="26" as="geometry" />
        </mxCell>
        <mxCell id="3FCXXXmUhi3AQjOjjsUY-10" style="edgeStyle=orthogonalEdgeStyle;rounded=0;orthogonalLoop=1;jettySize=auto;html=1;entryX=0.5;entryY=1;entryDx=0;entryDy=0;endArrow=diamondThin;endFill=1;startSize=6;endSize=6;strokeWidth=1;" parent="1" source="3FCXXXmUhi3AQjOjjsUY-11" target="3FCXXXmUhi3AQjOjjsUY-4" edge="1">
          <mxGeometry relative="1" as="geometry">
            <Array as="points">
              <mxPoint x="860" y="684" />
              <mxPoint x="860" y="684" />
            </Array>
          </mxGeometry>
        </mxCell>
        <mxCell id="3FCXXXmUhi3AQjOjjsUY-11" value="Participants Data" style="swimlane;fontStyle=1;align=center;verticalAlign=top;childLayout=stackLayout;horizontal=1;startSize=26;horizontalStack=0;resizeParent=1;resizeParentMax=0;resizeLast=0;collapsible=1;marginBottom=0;" parent="1" vertex="1">
          <mxGeometry x="740" y="624" width="200" height="60" as="geometry" />
        </mxCell>
        <mxCell id="3FCXXXmUhi3AQjOjjsUY-13" value="- u_id : varchar(15)" style="text;strokeColor=none;fillColor=none;align=left;verticalAlign=top;spacingLeft=4;spacingRight=4;overflow=hidden;rotatable=0;points=[[0,0.5],[1,0.5]];portConstraint=eastwest;" parent="3FCXXXmUhi3AQjOjjsUY-11" vertex="1">
          <mxGeometry y="26" width="200" height="26" as="geometry" />
        </mxCell>
        <mxCell id="3FCXXXmUhi3AQjOjjsUY-14" value="" style="line;strokeWidth=1;fillColor=none;align=left;verticalAlign=middle;spacingTop=-1;spacingLeft=3;spacingRight=3;rotatable=0;labelPosition=right;points=[];portConstraint=eastwest;" parent="3FCXXXmUhi3AQjOjjsUY-11" vertex="1">
          <mxGeometry y="52" width="200" height="8" as="geometry" />
        </mxCell>
        <mxCell id="3FCXXXmUhi3AQjOjjsUY-15" style="edgeStyle=orthogonalEdgeStyle;rounded=0;orthogonalLoop=1;jettySize=auto;html=1;endArrow=diamondThin;endFill=1;startSize=6;endSize=6;strokeWidth=1;" parent="1" source="3FCXXXmUhi3AQjOjjsUY-16" target="3FCXXXmUhi3AQjOjjsUY-4" edge="1">
          <mxGeometry relative="1" as="geometry">
            <Array as="points">
              <mxPoint x="920" y="604" />
            </Array>
            <mxPoint x="1070" y="624" as="sourcePoint" />
          </mxGeometry>
        </mxCell>
        <mxCell id="3FCXXXmUhi3AQjOjjsUY-16" value="Meeting Room Data" style="swimlane;fontStyle=1;align=center;verticalAlign=top;childLayout=stackLayout;horizontal=1;startSize=26;horizontalStack=0;resizeParent=1;resizeParentMax=0;resizeLast=0;collapsible=1;marginBottom=0;" parent="1" vertex="1">
          <mxGeometry x="979" y="524" width="290" height="174" as="geometry" />
        </mxCell>
        <mxCell id="3FCXXXmUhi3AQjOjjsUY-18" value="- creator : varchar(15)" style="text;strokeColor=none;fillColor=none;align=left;verticalAlign=top;spacingLeft=4;spacingRight=4;overflow=hidden;rotatable=0;points=[[0,0.5],[1,0.5]];portConstraint=eastwest;" parent="3FCXXXmUhi3AQjOjjsUY-16" vertex="1">
          <mxGeometry y="26" width="290" height="26" as="geometry" />
        </mxCell>
        <mxCell id="3FCXXXmUhi3AQjOjjsUY-19" value="- is_team : int" style="text;strokeColor=none;fillColor=none;align=left;verticalAlign=top;spacingLeft=4;spacingRight=4;overflow=hidden;rotatable=0;points=[[0,0.5],[1,0.5]];portConstraint=eastwest;" parent="3FCXXXmUhi3AQjOjjsUY-16" vertex="1">
          <mxGeometry y="52" width="290" height="26" as="geometry" />
        </mxCell>
        <mxCell id="3FCXXXmUhi3AQjOjjsUY-20" value="- is_active : boolean" style="text;strokeColor=none;fillColor=none;align=left;verticalAlign=top;spacingLeft=4;spacingRight=4;overflow=hidden;rotatable=0;points=[[0,0.5],[1,0.5]];portConstraint=eastwest;" parent="3FCXXXmUhi3AQjOjjsUY-16" vertex="1">
          <mxGeometry y="78" width="290" height="26" as="geometry" />
        </mxCell>
        <mxCell id="3FCXXXmUhi3AQjOjjsUY-21" value="- r_createTime : datetime" style="text;strokeColor=none;fillColor=none;align=left;verticalAlign=top;spacingLeft=4;spacingRight=4;overflow=hidden;rotatable=0;points=[[0,0.5],[1,0.5]];portConstraint=eastwest;" parent="3FCXXXmUhi3AQjOjjsUY-16" vertex="1">
          <mxGeometry y="104" width="290" height="26" as="geometry" />
        </mxCell>
        <mxCell id="3FCXXXmUhi3AQjOjjsUY-22" value="" style="line;strokeWidth=1;fillColor=none;align=left;verticalAlign=middle;spacingTop=-1;spacingLeft=3;spacingRight=3;rotatable=0;labelPosition=right;points=[];portConstraint=eastwest;" parent="3FCXXXmUhi3AQjOjjsUY-16" vertex="1">
          <mxGeometry y="130" width="290" height="8" as="geometry" />
        </mxCell>
        <mxCell id="3FCXXXmUhi3AQjOjjsUY-23" value="+ getteamRoomData()" style="text;strokeColor=none;fillColor=none;align=left;verticalAlign=top;spacingLeft=4;spacingRight=4;overflow=hidden;rotatable=0;points=[[0,0.5],[1,0.5]];portConstraint=eastwest;" parent="3FCXXXmUhi3AQjOjjsUY-16" vertex="1">
          <mxGeometry y="138" width="290" height="36" as="geometry" />
        </mxCell>
        <mxCell id="3FCXXXmUhi3AQjOjjsUY-31" style="edgeStyle=orthogonalEdgeStyle;rounded=0;orthogonalLoop=1;jettySize=auto;html=1;dashed=1;endArrow=open;endFill=0;" parent="1" source="3FCXXXmUhi3AQjOjjsUY-25" target="Hz_aNHwt8BgAc0QITuWz-55" edge="1">
          <mxGeometry relative="1" as="geometry">
            <Array as="points">
              <mxPoint x="760" y="441" />
              <mxPoint x="760" y="320" />
            </Array>
          </mxGeometry>
        </mxCell>
        <mxCell id="3FCXXXmUhi3AQjOjjsUY-25" value="Team View" style="swimlane;fontStyle=1;align=center;verticalAlign=top;childLayout=stackLayout;horizontal=1;startSize=26;horizontalStack=0;resizeParent=1;resizeParentMax=0;resizeLast=0;collapsible=1;marginBottom=0;" parent="1" vertex="1">
          <mxGeometry x="560" y="415" width="160" height="52" as="geometry" />
        </mxCell>
        <mxCell id="3FCXXXmUhi3AQjOjjsUY-26" value="- Join Room UI" style="text;strokeColor=none;fillColor=none;align=left;verticalAlign=top;spacingLeft=4;spacingRight=4;overflow=hidden;rotatable=0;points=[[0,0.5],[1,0.5]];portConstraint=eastwest;" parent="3FCXXXmUhi3AQjOjjsUY-25" vertex="1">
          <mxGeometry y="26" width="160" height="26" as="geometry" />
        </mxCell>
        <mxCell id="4UmKPEfYZLAE1zrM95qP-3" value="1..*" style="text;html=1;align=center;verticalAlign=middle;resizable=0;points=[];autosize=1;strokeColor=none;" vertex="1" parent="1">
          <mxGeometry x="832" y="601" width="30" height="20" as="geometry" />
        </mxCell>
        <mxCell id="4UmKPEfYZLAE1zrM95qP-4" value="1" style="text;html=1;align=center;verticalAlign=middle;resizable=0;points=[];autosize=1;strokeColor=none;" vertex="1" parent="1">
          <mxGeometry x="959" y="581" width="20" height="20" as="geometry" />
        </mxCell>
      </root>
    </mxGraphModel>
  </diagram>
</mxfile>
